<mxfile host="65bd71144e">
    <diagram id="lricdIVdC-vy5t94AxPi" name="Page-1">
        <mxGraphModel dx="3067" dy="810" grid="1" gridSize="10" guides="1" tooltips="1" connect="1" arrows="1" fold="1" page="1" pageScale="1" pageWidth="850" pageHeight="1100" math="0" shadow="0">
            <root>
                <mxCell id="0"/>
                <mxCell id="1" parent="0"/>
                <mxCell id="2" value="&lt;font style=&quot;font-size: 22px;&quot;&gt;Tour&lt;/font&gt;" style="whiteSpace=wrap;html=1;align=center;" parent="1" vertex="1">
                    <mxGeometry x="248" y="557.5" width="155" height="75" as="geometry"/>
                </mxCell>
                <mxCell id="3" value="duration" style="ellipse;whiteSpace=wrap;html=1;align=center;" parent="1" vertex="1">
                    <mxGeometry x="248" y="265" width="100" height="40" as="geometry"/>
                </mxCell>
                <mxCell id="4" value="description" style="ellipse;whiteSpace=wrap;html=1;align=center;" parent="1" vertex="1">
                    <mxGeometry x="360" y="272.5" width="100" height="40" as="geometry"/>
                </mxCell>
                <mxCell id="5" value="tour guide" style="ellipse;whiteSpace=wrap;html=1;align=center;" parent="1" vertex="1">
                    <mxGeometry x="430" y="315" width="100" height="40" as="geometry"/>
                </mxCell>
                <mxCell id="6" value="group size" style="ellipse;whiteSpace=wrap;html=1;align=center;" parent="1" vertex="1">
                    <mxGeometry x="148" y="305" width="100" height="40" as="geometry"/>
                </mxCell>
                <mxCell id="7" value="name" style="ellipse;whiteSpace=wrap;html=1;align=center;" parent="1" vertex="1">
                    <mxGeometry x="40" y="425" width="100" height="40" as="geometry"/>
                </mxCell>
                <mxCell id="10" value="ID" style="ellipse;whiteSpace=wrap;html=1;align=center;fontStyle=4;" parent="1" vertex="1">
                    <mxGeometry y="475" width="100" height="40" as="geometry"/>
                </mxCell>
                <mxCell id="11" value="price" style="ellipse;whiteSpace=wrap;html=1;align=center;" parent="1" vertex="1">
                    <mxGeometry x="80" y="355" width="100" height="40" as="geometry"/>
                </mxCell>
                <mxCell id="13" value="avg ratings" style="ellipse;whiteSpace=wrap;html=1;align=center;" parent="1" vertex="1">
                    <mxGeometry x="490" y="365" width="100" height="40" as="geometry"/>
                </mxCell>
                <mxCell id="14" value="date" style="ellipse;whiteSpace=wrap;html=1;align=center;" parent="1" vertex="1">
                    <mxGeometry x="540" y="415" width="100" height="40" as="geometry"/>
                </mxCell>
                <mxCell id="17" value="" style="endArrow=none;html=1;rounded=0;exitX=0.5;exitY=1;exitDx=0;exitDy=0;entryX=0.5;entryY=0;entryDx=0;entryDy=0;" parent="1" source="10" target="2" edge="1">
                    <mxGeometry relative="1" as="geometry">
                        <mxPoint x="340" y="435" as="sourcePoint"/>
                        <mxPoint x="500" y="435" as="targetPoint"/>
                    </mxGeometry>
                </mxCell>
                <mxCell id="18" value="" style="endArrow=none;html=1;rounded=0;exitX=0.5;exitY=1;exitDx=0;exitDy=0;entryX=0.5;entryY=0;entryDx=0;entryDy=0;" parent="1" source="11" target="2" edge="1">
                    <mxGeometry relative="1" as="geometry">
                        <mxPoint x="50" y="465" as="sourcePoint"/>
                        <mxPoint x="310" y="475" as="targetPoint"/>
                    </mxGeometry>
                </mxCell>
                <mxCell id="19" value="" style="endArrow=none;html=1;rounded=0;exitX=0.5;exitY=1;exitDx=0;exitDy=0;entryX=0.5;entryY=0;entryDx=0;entryDy=0;" parent="1" source="6" target="2" edge="1">
                    <mxGeometry relative="1" as="geometry">
                        <mxPoint x="197.5" y="320" as="sourcePoint"/>
                        <mxPoint x="347.5" y="455" as="targetPoint"/>
                    </mxGeometry>
                </mxCell>
                <mxCell id="20" value="" style="endArrow=none;html=1;rounded=0;exitX=0.5;exitY=1;exitDx=0;exitDy=0;entryX=0.5;entryY=0;entryDx=0;entryDy=0;" parent="1" source="3" target="2" edge="1">
                    <mxGeometry relative="1" as="geometry">
                        <mxPoint x="70" y="485" as="sourcePoint"/>
                        <mxPoint x="370" y="415" as="targetPoint"/>
                    </mxGeometry>
                </mxCell>
                <mxCell id="21" value="" style="endArrow=none;html=1;rounded=0;exitX=0.5;exitY=1;exitDx=0;exitDy=0;entryX=0.5;entryY=0;entryDx=0;entryDy=0;" parent="1" source="7" target="2" edge="1">
                    <mxGeometry relative="1" as="geometry">
                        <mxPoint x="80" y="495" as="sourcePoint"/>
                        <mxPoint x="270" y="405" as="targetPoint"/>
                    </mxGeometry>
                </mxCell>
                <mxCell id="22" value="" style="endArrow=none;html=1;rounded=0;exitX=0.5;exitY=1;exitDx=0;exitDy=0;entryX=0.5;entryY=0;entryDx=0;entryDy=0;" parent="1" source="4" target="2" edge="1">
                    <mxGeometry relative="1" as="geometry">
                        <mxPoint x="308" y="305" as="sourcePoint"/>
                        <mxPoint x="308" y="520" as="targetPoint"/>
                    </mxGeometry>
                </mxCell>
                <mxCell id="23" value="" style="endArrow=none;html=1;rounded=0;exitX=0.5;exitY=1;exitDx=0;exitDy=0;entryX=0.5;entryY=0;entryDx=0;entryDy=0;" parent="1" source="5" target="2" edge="1">
                    <mxGeometry relative="1" as="geometry">
                        <mxPoint x="318" y="315" as="sourcePoint"/>
                        <mxPoint x="318" y="530" as="targetPoint"/>
                    </mxGeometry>
                </mxCell>
                <mxCell id="24" value="" style="endArrow=none;html=1;rounded=0;exitX=0.5;exitY=1;exitDx=0;exitDy=0;entryX=0.5;entryY=0;entryDx=0;entryDy=0;" parent="1" source="13" target="2" edge="1">
                    <mxGeometry relative="1" as="geometry">
                        <mxPoint x="328" y="325" as="sourcePoint"/>
                        <mxPoint x="328" y="540" as="targetPoint"/>
                    </mxGeometry>
                </mxCell>
                <mxCell id="25" value="" style="endArrow=none;html=1;rounded=0;exitX=0.5;exitY=1;exitDx=0;exitDy=0;entryX=0.5;entryY=0;entryDx=0;entryDy=0;" parent="1" source="14" target="2" edge="1">
                    <mxGeometry relative="1" as="geometry">
                        <mxPoint x="338" y="335" as="sourcePoint"/>
                        <mxPoint x="338" y="550" as="targetPoint"/>
                    </mxGeometry>
                </mxCell>
                <mxCell id="26" value="&lt;font style=&quot;font-size: 22px;&quot;&gt;User&lt;/font&gt;" style="whiteSpace=wrap;html=1;align=center;" parent="1" vertex="1">
                    <mxGeometry x="-600" y="560" width="160" height="80" as="geometry"/>
                </mxCell>
                <mxCell id="27" value="last name" style="ellipse;whiteSpace=wrap;html=1;align=center;" parent="1" vertex="1">
                    <mxGeometry x="-920" y="277.5" width="100" height="40" as="geometry"/>
                </mxCell>
                <mxCell id="28" value="first name" style="ellipse;whiteSpace=wrap;html=1;align=center;" parent="1" vertex="1">
                    <mxGeometry x="-800" y="257.5" width="100" height="40" as="geometry"/>
                </mxCell>
                <mxCell id="29" value="date of birth" style="ellipse;whiteSpace=wrap;html=1;align=center;" parent="1" vertex="1">
                    <mxGeometry x="-460" y="330" width="100" height="40" as="geometry"/>
                </mxCell>
                <mxCell id="32" value="ID" style="ellipse;whiteSpace=wrap;html=1;align=center;fontStyle=4;" parent="1" vertex="1">
                    <mxGeometry x="-830" y="420" width="100" height="40" as="geometry"/>
                </mxCell>
                <mxCell id="33" value="full name" style="ellipse;shape=doubleEllipse;margin=3;whiteSpace=wrap;html=1;align=center;" parent="1" vertex="1">
                    <mxGeometry x="-770" y="370" width="100" height="40" as="geometry"/>
                </mxCell>
                <mxCell id="35" value="password" style="ellipse;whiteSpace=wrap;html=1;align=center;" parent="1" vertex="1">
                    <mxGeometry x="-570" y="300" width="100" height="40" as="geometry"/>
                </mxCell>
                <mxCell id="36" value="email" style="ellipse;whiteSpace=wrap;html=1;align=center;" parent="1" vertex="1">
                    <mxGeometry x="-670" y="330" width="100" height="40" as="geometry"/>
                </mxCell>
                <mxCell id="40" value="" style="endArrow=none;html=1;rounded=0;exitX=0.5;exitY=1;exitDx=0;exitDy=0;entryX=0.5;entryY=0;entryDx=0;entryDy=0;" parent="1" source="36" target="26" edge="1">
                    <mxGeometry relative="1" as="geometry">
                        <mxPoint x="-550" y="477.5" as="sourcePoint"/>
                        <mxPoint x="-390" y="477.5" as="targetPoint"/>
                    </mxGeometry>
                </mxCell>
                <mxCell id="41" value="" style="endArrow=none;html=1;rounded=0;exitX=0.5;exitY=1;exitDx=0;exitDy=0;entryX=0.5;entryY=0;entryDx=0;entryDy=0;" parent="1" source="27" target="33" edge="1">
                    <mxGeometry relative="1" as="geometry">
                        <mxPoint x="-550" y="477.5" as="sourcePoint"/>
                        <mxPoint x="-810" y="347.5" as="targetPoint"/>
                    </mxGeometry>
                </mxCell>
                <mxCell id="42" value="" style="endArrow=none;html=1;rounded=0;exitX=0.5;exitY=1;exitDx=0;exitDy=0;entryX=0.5;entryY=0;entryDx=0;entryDy=0;" parent="1" source="28" target="33" edge="1">
                    <mxGeometry relative="1" as="geometry">
                        <mxPoint x="-550" y="477.5" as="sourcePoint"/>
                        <mxPoint x="-390" y="477.5" as="targetPoint"/>
                    </mxGeometry>
                </mxCell>
                <mxCell id="43" value="" style="endArrow=none;html=1;rounded=0;exitX=0.5;exitY=1;exitDx=0;exitDy=0;entryX=0.5;entryY=0;entryDx=0;entryDy=0;" parent="1" source="32" target="26" edge="1">
                    <mxGeometry relative="1" as="geometry">
                        <mxPoint x="-550" y="477.5" as="sourcePoint"/>
                        <mxPoint x="-390" y="477.5" as="targetPoint"/>
                    </mxGeometry>
                </mxCell>
                <mxCell id="44" value="" style="endArrow=none;html=1;rounded=0;exitX=0.5;exitY=1;exitDx=0;exitDy=0;entryX=0.5;entryY=0;entryDx=0;entryDy=0;" parent="1" source="33" target="26" edge="1">
                    <mxGeometry relative="1" as="geometry">
                        <mxPoint x="-550" y="477.5" as="sourcePoint"/>
                        <mxPoint x="-390" y="477.5" as="targetPoint"/>
                    </mxGeometry>
                </mxCell>
                <mxCell id="48" value="time stamps" style="ellipse;whiteSpace=wrap;html=1;align=center;" parent="1" vertex="1">
                    <mxGeometry x="-390" y="380" width="100" height="40" as="geometry"/>
                </mxCell>
                <mxCell id="50" value="&lt;font style=&quot;font-size: 22px;&quot;&gt;Review&lt;/font&gt;" style="whiteSpace=wrap;html=1;align=center;" parent="1" vertex="1">
                    <mxGeometry x="-770" y="990" width="155" height="70" as="geometry"/>
                </mxCell>
                <mxCell id="51" value="ID" style="ellipse;whiteSpace=wrap;html=1;align=center;fontStyle=4;" parent="1" vertex="1">
                    <mxGeometry x="-940" y="860" width="100" height="40" as="geometry"/>
                </mxCell>
                <mxCell id="52" value="author" style="ellipse;whiteSpace=wrap;html=1;align=center;" parent="1" vertex="1">
                    <mxGeometry x="-860" y="820" width="100" height="40" as="geometry"/>
                </mxCell>
                <mxCell id="55" value="age" style="ellipse;whiteSpace=wrap;html=1;align=center;dashed=1;" parent="1" vertex="1">
                    <mxGeometry x="-320" y="430" width="100" height="40" as="geometry"/>
                </mxCell>
                <mxCell id="60" value="number of&lt;div&gt;&amp;nbsp;ratings&amp;nbsp;&lt;/div&gt;" style="ellipse;whiteSpace=wrap;html=1;align=center;" parent="1" vertex="1">
                    <mxGeometry x="560" y="475" width="100" height="40" as="geometry"/>
                </mxCell>
                <mxCell id="62" value="" style="endArrow=none;html=1;rounded=0;exitX=0.5;exitY=1;exitDx=0;exitDy=0;entryX=0.5;entryY=0;entryDx=0;entryDy=0;" parent="1" source="60" target="2" edge="1">
                    <mxGeometry relative="1" as="geometry">
                        <mxPoint x="600" y="465" as="sourcePoint"/>
                        <mxPoint x="336" y="585" as="targetPoint"/>
                    </mxGeometry>
                </mxCell>
                <mxCell id="63" value="comment" style="ellipse;whiteSpace=wrap;html=1;align=center;" parent="1" vertex="1">
                    <mxGeometry x="-750" y="800" width="100" height="40" as="geometry"/>
                </mxCell>
                <mxCell id="64" value="createdAt" style="ellipse;whiteSpace=wrap;html=1;align=center;" parent="1" vertex="1">
                    <mxGeometry x="-650" y="820" width="100" height="40" as="geometry"/>
                </mxCell>
                <mxCell id="66" value="rating" style="ellipse;whiteSpace=wrap;html=1;align=center;" parent="1" vertex="1">
                    <mxGeometry x="-580" y="860" width="100" height="40" as="geometry"/>
                </mxCell>
                <mxCell id="67" value="" style="endArrow=none;html=1;rounded=0;exitX=0.5;exitY=1;exitDx=0;exitDy=0;entryX=0.5;entryY=0;entryDx=0;entryDy=0;" parent="1" source="35" target="26" edge="1">
                    <mxGeometry relative="1" as="geometry">
                        <mxPoint x="-590" y="380" as="sourcePoint"/>
                        <mxPoint x="-550" y="610" as="targetPoint"/>
                    </mxGeometry>
                </mxCell>
                <mxCell id="68" value="" style="endArrow=none;html=1;rounded=0;exitX=0.5;exitY=1;exitDx=0;exitDy=0;entryX=0.5;entryY=0;entryDx=0;entryDy=0;" parent="1" source="29" target="26" edge="1">
                    <mxGeometry relative="1" as="geometry">
                        <mxPoint x="-480" y="370" as="sourcePoint"/>
                        <mxPoint x="-550" y="610" as="targetPoint"/>
                    </mxGeometry>
                </mxCell>
                <mxCell id="69" value="" style="endArrow=none;html=1;rounded=0;exitX=0.5;exitY=1;exitDx=0;exitDy=0;entryX=0.5;entryY=0;entryDx=0;entryDy=0;" parent="1" source="48" target="26" edge="1">
                    <mxGeometry relative="1" as="geometry">
                        <mxPoint x="-470" y="380" as="sourcePoint"/>
                        <mxPoint x="-540" y="620" as="targetPoint"/>
                    </mxGeometry>
                </mxCell>
                <mxCell id="70" value="" style="endArrow=none;html=1;rounded=0;exitX=0.5;exitY=1;exitDx=0;exitDy=0;entryX=0.5;entryY=0;entryDx=0;entryDy=0;" parent="1" source="55" target="26" edge="1">
                    <mxGeometry relative="1" as="geometry">
                        <mxPoint x="-290" y="440" as="sourcePoint"/>
                        <mxPoint x="-550" y="610" as="targetPoint"/>
                    </mxGeometry>
                </mxCell>
                <mxCell id="71" value="&lt;font style=&quot;font-size: 22px;&quot;&gt;employee&lt;/font&gt;" style="whiteSpace=wrap;html=1;align=center;" parent="1" vertex="1">
                    <mxGeometry x="-1300" y="560" width="160" height="80" as="geometry"/>
                </mxCell>
                <mxCell id="75" value="ID" style="ellipse;whiteSpace=wrap;html=1;align=center;fontStyle=4;" parent="1" vertex="1">
                    <mxGeometry x="-1400" y="430" width="100" height="40" as="geometry"/>
                </mxCell>
                <mxCell id="77" value="role" style="ellipse;whiteSpace=wrap;html=1;align=center;" parent="1" vertex="1">
                    <mxGeometry x="-1270" y="400" width="100" height="40" as="geometry"/>
                </mxCell>
                <mxCell id="78" value="department" style="ellipse;whiteSpace=wrap;html=1;align=center;" parent="1" vertex="1">
                    <mxGeometry x="-1140" y="430" width="100" height="40" as="geometry"/>
                </mxCell>
                <mxCell id="81" value="" style="endArrow=none;html=1;entryX=0.5;entryY=1;entryDx=0;entryDy=0;exitX=0.5;exitY=0;exitDx=0;exitDy=0;" parent="1" source="71" target="78" edge="1">
                    <mxGeometry width="50" height="50" relative="1" as="geometry">
                        <mxPoint x="-1100" y="630" as="sourcePoint"/>
                        <mxPoint x="-1050" y="580" as="targetPoint"/>
                    </mxGeometry>
                </mxCell>
                <mxCell id="82" value="" style="endArrow=none;html=1;entryX=0.5;entryY=1;entryDx=0;entryDy=0;exitX=0.5;exitY=0;exitDx=0;exitDy=0;" parent="1" source="71" target="77" edge="1">
                    <mxGeometry width="50" height="50" relative="1" as="geometry">
                        <mxPoint x="-1100" y="630" as="sourcePoint"/>
                        <mxPoint x="-1050" y="580" as="targetPoint"/>
                    </mxGeometry>
                </mxCell>
                <mxCell id="83" value="" style="endArrow=none;html=1;entryX=0.5;entryY=1;entryDx=0;entryDy=0;exitX=0.5;exitY=0;exitDx=0;exitDy=0;" parent="1" source="71" target="75" edge="1">
                    <mxGeometry width="50" height="50" relative="1" as="geometry">
                        <mxPoint x="-1270" y="740" as="sourcePoint"/>
                        <mxPoint x="-1210" y="450" as="targetPoint"/>
                    </mxGeometry>
                </mxCell>
                <mxCell id="84" value="" style="endArrow=none;html=1;entryX=0.5;entryY=1;entryDx=0;entryDy=0;exitX=0.5;exitY=0;exitDx=0;exitDy=0;" parent="1" source="50" target="51" edge="1">
                    <mxGeometry width="50" height="50" relative="1" as="geometry">
                        <mxPoint x="-800" y="940" as="sourcePoint"/>
                        <mxPoint x="-1270" y="460" as="targetPoint"/>
                    </mxGeometry>
                </mxCell>
                <mxCell id="85" value="" style="endArrow=none;html=1;entryX=0.5;entryY=1;entryDx=0;entryDy=0;exitX=0.5;exitY=0;exitDx=0;exitDy=0;" parent="1" source="50" target="52" edge="1">
                    <mxGeometry width="50" height="50" relative="1" as="geometry">
                        <mxPoint x="-702" y="980" as="sourcePoint"/>
                        <mxPoint x="-880" y="910" as="targetPoint"/>
                    </mxGeometry>
                </mxCell>
                <mxCell id="86" value="" style="endArrow=none;html=1;entryX=0.5;entryY=1;entryDx=0;entryDy=0;exitX=0.5;exitY=0;exitDx=0;exitDy=0;" parent="1" source="50" target="63" edge="1">
                    <mxGeometry width="50" height="50" relative="1" as="geometry">
                        <mxPoint x="-702" y="980" as="sourcePoint"/>
                        <mxPoint x="-800" y="870" as="targetPoint"/>
                    </mxGeometry>
                </mxCell>
                <mxCell id="87" value="" style="endArrow=none;html=1;entryX=0.5;entryY=1;entryDx=0;entryDy=0;exitX=0.5;exitY=0;exitDx=0;exitDy=0;" parent="1" source="50" target="64" edge="1">
                    <mxGeometry width="50" height="50" relative="1" as="geometry">
                        <mxPoint x="-702" y="980" as="sourcePoint"/>
                        <mxPoint x="-690" y="850" as="targetPoint"/>
                    </mxGeometry>
                </mxCell>
                <mxCell id="88" value="" style="endArrow=none;html=1;entryX=0.5;entryY=1;entryDx=0;entryDy=0;exitX=0.5;exitY=0;exitDx=0;exitDy=0;" parent="1" source="50" target="66" edge="1">
                    <mxGeometry width="50" height="50" relative="1" as="geometry">
                        <mxPoint x="-692" y="990" as="sourcePoint"/>
                        <mxPoint x="-590" y="870" as="targetPoint"/>
                    </mxGeometry>
                </mxCell>
                <mxCell id="89" value="&lt;font style=&quot;font-size: 18px;&quot;&gt;is a&amp;nbsp;&lt;/font&gt;" style="shape=rhombus;perimeter=rhombusPerimeter;whiteSpace=wrap;html=1;align=center;" vertex="1" parent="1">
                    <mxGeometry x="-960" y="570" width="120" height="60" as="geometry"/>
                </mxCell>
                <mxCell id="91" value="" style="endArrow=none;html=1;rounded=0;entryX=0;entryY=0.5;entryDx=0;entryDy=0;exitX=1;exitY=0.5;exitDx=0;exitDy=0;" edge="1" parent="1" source="89" target="26">
                    <mxGeometry relative="1" as="geometry">
                        <mxPoint x="-550" y="680" as="sourcePoint"/>
                        <mxPoint x="-390" y="680" as="targetPoint"/>
                    </mxGeometry>
                </mxCell>
                <mxCell id="92" value="1" style="resizable=0;html=1;whiteSpace=wrap;align=right;verticalAlign=bottom;" connectable="0" vertex="1" parent="91">
                    <mxGeometry x="1" relative="1" as="geometry"/>
                </mxCell>
                <mxCell id="93" value="" style="endArrow=none;html=1;rounded=0;entryX=1;entryY=0.5;entryDx=0;entryDy=0;" edge="1" parent="1" source="89" target="71">
                    <mxGeometry relative="1" as="geometry">
                        <mxPoint x="-910" y="680" as="sourcePoint"/>
                        <mxPoint x="-750" y="680" as="targetPoint"/>
                    </mxGeometry>
                </mxCell>
                <mxCell id="94" value="1" style="resizable=0;html=1;whiteSpace=wrap;align=right;verticalAlign=bottom;" connectable="0" vertex="1" parent="93">
                    <mxGeometry x="1" relative="1" as="geometry"/>
                </mxCell>
                <mxCell id="95" value="&lt;font style=&quot;font-size: 24px;&quot;&gt;Create&lt;/font&gt;" style="shape=rhombus;perimeter=rhombusPerimeter;whiteSpace=wrap;html=1;align=center;" vertex="1" parent="1">
                    <mxGeometry x="-840" y="680" width="150" height="80" as="geometry"/>
                </mxCell>
                <mxCell id="106" value="" style="endArrow=none;html=1;rounded=0;entryX=0;entryY=0.5;entryDx=0;entryDy=0;exitX=1;exitY=0.5;exitDx=0;exitDy=0;" edge="1" parent="1" source="108" target="2">
                    <mxGeometry relative="1" as="geometry">
                        <mxPoint x="-100" y="595" as="sourcePoint"/>
                        <mxPoint x="130" y="605" as="targetPoint"/>
                    </mxGeometry>
                </mxCell>
                <mxCell id="107" value="N" style="resizable=0;html=1;whiteSpace=wrap;align=right;verticalAlign=bottom;" connectable="0" vertex="1" parent="106">
                    <mxGeometry x="1" relative="1" as="geometry"/>
                </mxCell>
                <mxCell id="108" value="&lt;font style=&quot;font-size: 14px;&quot;&gt;books&lt;/font&gt;" style="shape=rhombus;perimeter=rhombusPerimeter;whiteSpace=wrap;html=1;align=center;" vertex="1" parent="1">
                    <mxGeometry x="-240" y="565" width="120" height="60" as="geometry"/>
                </mxCell>
                <mxCell id="109" value="" style="endArrow=none;html=1;rounded=0;entryX=0;entryY=0.5;entryDx=0;entryDy=0;exitX=1;exitY=0.5;exitDx=0;exitDy=0;" edge="1" parent="1" source="26" target="108">
                    <mxGeometry relative="1" as="geometry">
                        <mxPoint x="-290" y="770" as="sourcePoint"/>
                        <mxPoint x="-130" y="770" as="targetPoint"/>
                    </mxGeometry>
                </mxCell>
                <mxCell id="110" value="&lt;font style=&quot;font-size: 12px;&quot;&gt;M&lt;/font&gt;" style="text;html=1;align=center;verticalAlign=middle;whiteSpace=wrap;rounded=0;" vertex="1" parent="1">
                    <mxGeometry x="-460" y="570" width="60" height="30" as="geometry"/>
                </mxCell>
                <mxCell id="117" value="&lt;span style=&quot;font-size: 24px;&quot;&gt;watches&lt;/span&gt;" style="shape=rhombus;perimeter=rhombusPerimeter;whiteSpace=wrap;html=1;align=center;" vertex="1" parent="1">
                    <mxGeometry x="-1080" y="985" width="150" height="80" as="geometry"/>
                </mxCell>
                <mxCell id="118" value="" style="endArrow=none;html=1;rounded=0;entryX=0;entryY=0.5;entryDx=0;entryDy=0;exitX=1;exitY=0.5;exitDx=0;exitDy=0;" edge="1" parent="1" source="117" target="50">
                    <mxGeometry relative="1" as="geometry">
                        <mxPoint x="-280" y="760" as="sourcePoint"/>
                        <mxPoint x="-120" y="760" as="targetPoint"/>
                    </mxGeometry>
                </mxCell>
                <mxCell id="119" value="N" style="resizable=0;html=1;whiteSpace=wrap;align=right;verticalAlign=bottom;" connectable="0" vertex="1" parent="118">
                    <mxGeometry x="1" relative="1" as="geometry"/>
                </mxCell>
                <mxCell id="120" value="" style="endArrow=none;html=1;rounded=0;exitX=0.25;exitY=1;exitDx=0;exitDy=0;entryX=0;entryY=0.5;entryDx=0;entryDy=0;" edge="1" parent="1" source="71" target="117">
                    <mxGeometry relative="1" as="geometry">
                        <mxPoint x="-280" y="760" as="sourcePoint"/>
                        <mxPoint x="-120" y="760" as="targetPoint"/>
                        <Array as="points">
                            <mxPoint x="-1260" y="1025"/>
                        </Array>
                    </mxGeometry>
                </mxCell>
                <mxCell id="125" value="M" style="text;html=1;align=center;verticalAlign=middle;whiteSpace=wrap;rounded=0;" vertex="1" parent="1">
                    <mxGeometry x="-1290" y="620" width="60" height="30" as="geometry"/>
                </mxCell>
                <mxCell id="126" value="&lt;font style=&quot;font-size: 14px;&quot;&gt;Has&lt;/font&gt;" style="shape=rhombus;perimeter=rhombusPerimeter;whiteSpace=wrap;html=1;align=center;" vertex="1" parent="1">
                    <mxGeometry x="100" y="1005" width="120" height="60" as="geometry"/>
                </mxCell>
                <mxCell id="127" value="" style="endArrow=none;html=1;rounded=0;entryX=0.25;entryY=1;entryDx=0;entryDy=0;exitX=1;exitY=0.5;exitDx=0;exitDy=0;" edge="1" parent="1" source="95" target="2">
                    <mxGeometry relative="1" as="geometry">
                        <mxPoint x="-280" y="760" as="sourcePoint"/>
                        <mxPoint x="-120" y="760" as="targetPoint"/>
                        <Array as="points">
                            <mxPoint x="287" y="720"/>
                        </Array>
                    </mxGeometry>
                </mxCell>
                <mxCell id="128" value="N" style="resizable=0;html=1;whiteSpace=wrap;align=right;verticalAlign=bottom;" connectable="0" vertex="1" parent="127">
                    <mxGeometry x="1" relative="1" as="geometry"/>
                </mxCell>
                <mxCell id="129" value="" style="endArrow=none;html=1;rounded=0;entryX=0.75;entryY=1;entryDx=0;entryDy=0;exitX=0;exitY=0.5;exitDx=0;exitDy=0;" edge="1" parent="1" source="95" target="71">
                    <mxGeometry relative="1" as="geometry">
                        <mxPoint x="-280" y="760" as="sourcePoint"/>
                        <mxPoint x="-120" y="760" as="targetPoint"/>
                        <Array as="points">
                            <mxPoint x="-1180" y="720"/>
                        </Array>
                    </mxGeometry>
                </mxCell>
                <mxCell id="130" value="1" style="resizable=0;html=1;whiteSpace=wrap;align=right;verticalAlign=bottom;" connectable="0" vertex="1" parent="129">
                    <mxGeometry x="1" relative="1" as="geometry"/>
                </mxCell>
                <mxCell id="131" value="" style="endArrow=none;html=1;rounded=0;entryX=1;entryY=0.75;entryDx=0;entryDy=0;exitX=0;exitY=0.5;exitDx=0;exitDy=0;" edge="1" parent="1" source="126" target="50">
                    <mxGeometry relative="1" as="geometry">
                        <mxPoint x="-110" y="850" as="sourcePoint"/>
                        <mxPoint x="50" y="850" as="targetPoint"/>
                    </mxGeometry>
                </mxCell>
                <mxCell id="132" value="N" style="resizable=0;html=1;whiteSpace=wrap;align=right;verticalAlign=bottom;" connectable="0" vertex="1" parent="131">
                    <mxGeometry x="1" relative="1" as="geometry"/>
                </mxCell>
                <mxCell id="133" value="" style="endArrow=none;html=1;rounded=0;entryX=0.5;entryY=1;entryDx=0;entryDy=0;exitX=0.5;exitY=0;exitDx=0;exitDy=0;" edge="1" parent="1" source="126" target="2">
                    <mxGeometry relative="1" as="geometry">
                        <mxPoint x="-210" y="845" as="sourcePoint"/>
                        <mxPoint x="-50" y="845" as="targetPoint"/>
                        <Array as="points">
                            <mxPoint x="160" y="915"/>
                            <mxPoint x="330" y="915"/>
                        </Array>
                    </mxGeometry>
                </mxCell>
                <mxCell id="134" value="1" style="resizable=0;html=1;whiteSpace=wrap;align=right;verticalAlign=bottom;" connectable="0" vertex="1" parent="133">
                    <mxGeometry x="1" relative="1" as="geometry"/>
                </mxCell>
                <mxCell id="135" value="&lt;font style=&quot;font-size: 24px;&quot;&gt;write&lt;/font&gt;" style="shape=rhombus;perimeter=rhombusPerimeter;whiteSpace=wrap;html=1;align=center;" vertex="1" parent="1">
                    <mxGeometry x="-400" y="870" width="150" height="80" as="geometry"/>
                </mxCell>
                <mxCell id="136" value="" style="endArrow=none;html=1;rounded=0;entryX=1;entryY=0.25;entryDx=0;entryDy=0;exitX=0.5;exitY=1;exitDx=0;exitDy=0;" edge="1" parent="1" source="135" target="50">
                    <mxGeometry relative="1" as="geometry">
                        <mxPoint x="-330" y="790" as="sourcePoint"/>
                        <mxPoint x="-170" y="790" as="targetPoint"/>
                        <Array as="points">
                            <mxPoint x="-325" y="1008"/>
                        </Array>
                    </mxGeometry>
                </mxCell>
                <mxCell id="137" value="N" style="resizable=0;html=1;whiteSpace=wrap;align=right;verticalAlign=bottom;" connectable="0" vertex="1" parent="136">
                    <mxGeometry x="1" relative="1" as="geometry"/>
                </mxCell>
                <mxCell id="138" value="" style="endArrow=none;html=1;rounded=0;entryX=1;entryY=0.75;entryDx=0;entryDy=0;exitX=0.5;exitY=0;exitDx=0;exitDy=0;" edge="1" parent="1" source="135" target="26">
                    <mxGeometry relative="1" as="geometry">
                        <mxPoint x="-330" y="770" as="sourcePoint"/>
                        <mxPoint x="-170" y="770" as="targetPoint"/>
                        <Array as="points">
                            <mxPoint x="-325" y="620"/>
                        </Array>
                    </mxGeometry>
                </mxCell>
                <mxCell id="139" value="1" style="resizable=0;html=1;whiteSpace=wrap;align=right;verticalAlign=bottom;" connectable="0" vertex="1" parent="138">
                    <mxGeometry x="1" relative="1" as="geometry"/>
                </mxCell>
            </root>
        </mxGraphModel>
    </diagram>
</mxfile>